<?xml version="1.0" encoding="utf-8"?>
<!-- Generator: Adobe Illustrator 16.0.0, SVG Export Plug-In . SVG Version: 6.00 Build 0)  -->
<!DOCTYPE svg PUBLIC "-//W3C//DTD SVG 1.0//EN" "http://www.w3.org/TR/2001/REC-SVG-20010904/DTD/svg10.dtd">
<svg version="1.0" id="Layer_1" xmlns="http://www.w3.org/2000/svg" xmlns:xlink="http://www.w3.org/1999/xlink" x="0px" y="0px"
	 width="800px" height="800px" viewBox="0 0 800 800" enable-background="new 0 0 800 800" xml:space="preserve">
<path fill="#A87AB6" d="M342.4,372.199c1.374-3.593,3.319-6.879,5.609-9.939c1.628-2.175,3.535-4.094,6.628-3.853
	c1.193,1.488,1.58,0.098,2.16-0.604c0.231-0.068,0.462-0.136,0.694-0.202c-0.176,1.679,2.951,3.879,0.105,4.859
	c-3.959,1.365-3.932,4.816-5.675,7.621c-0.561,0.016-0.824-1.793-1.932-0.957c-0.604,0.456-0.453,1.341-0.144,2.004
	c0.336,0.719,0.719,2.029,1.58,1.57c1.424-0.759,4.065-0.268,4.104-2.555c0.072-4.373,3.899-6.506,5.393-9.981
	c0.271-0.631,0.302-1.519,1.248-1.494c1.201,0.032,1.037,1.081,1.212,1.851c0.783,3.447,1.592,7.012,4.564,9.219
	c2.062,1.532,3.885,3.064,4.836,5.481c-4.431,3.089-9.856,3.305-14.8,4.74c-4.333,1.258-8.958-0.755-13.37-1.892
	c-1.611-0.416-1.132-2.254-2.216-2.989C342.4,374.119,342.4,373.159,342.4,372.199z"/>
<path fill="#D3C2DD" d="M372.785,375.22c-0.951-2.417-2.772-3.949-4.836-5.481c-2.973-2.207-3.781-5.772-4.564-9.219
	c-0.175-0.77-0.011-1.818-1.212-1.851c-0.946-0.025-0.977,0.863-1.248,1.494c-1.493,3.475-5.319,5.608-5.393,9.981
	c-0.039,2.287-2.681,1.796-4.104,2.555c-0.861,0.459-1.244-0.851-1.58-1.57c-0.31-0.663-0.459-1.548,0.144-2.004
	c1.106-0.837,1.371,0.972,1.932,0.957c1.743-2.805,1.716-6.256,5.675-7.621c2.845-0.98-0.282-3.181-0.105-4.859
	c-1.314-1.863-2.483-3.85-3.972-5.559c-3.065-3.518-4.452-7.205-3.51-12.069c0.72-3.712,3.029-4.107,5.792-4.451
	c2.986-0.372,3.481,1.899,4.079,4.005c1.413,4.984,7.517,8.147,12.595,6.272c1.133-0.418,2.024-0.37,3.06-0.208
	c-0.109,0.606-0.291,1.231-0.923,1.427c-3.435,1.067-6.256,2.976-8.38,5.899c-0.036,0.05-0.385-0.125-0.58-0.194
	c-0.333-0.732-0.128-1.408,0.141-2.083c0.363-0.908,0.701-1.872-0.188-2.619c-0.236-0.198-1.02-0.104-1.269,0.142
	c-0.69,0.682-1.155,1.534-0.656,2.571c0.607,1.261,0.104,2.562,0.079,4.293c1.091-1.026,2.109,0.09,3.167-0.471
	c3.756-1.99,7.723-3.337,11.924-4.075c0.979-0.171,1.889-0.971,2.735-1.606c3.866-2.896,7.921-5.285,12.938-5.478
	c4.667-0.179,4.715-0.263,4.708-4.967c2.685-0.649,5.449-1.006,7.979-2.217c2.851,1.608,5.396,0.056,8.009-0.775
	c6.049-0.328,11.599,1.612,16.906,4.129c3.225,1.529,6.112,1.175,9.507,0.679c4.185-0.611,7.894-3.266,12.279-2.615
	c0.636,0.095,1.587-0.309,1.669,0.758c0.045,0.576-0.42,1.021-1.003,1.353c-2.302,1.307-4.777,2.097-7.334,2.705
	c-5.929,1.41-9.229,5.405-10.503,11.137c-0.745,3.356-3.542,4.681-5.867,6.396c-3.503,2.583-7.042,5.24-10.917,7.154
	c-3.434,1.697-6.866,3.639-10.729,4.385c-0.18,0.19-0.357,0.38-0.537,0.571c-0.235,0.061-0.472,0.121-0.706,0.18
	c-2.768,0.157-5.752-0.556-7.919,1.989c-5.443,1.029-9.658,4.475-14.239,7.21c-1.692,1.011-0.993,2.833-1.382,4.209
	c-1.004,3.55-1.687,7.237-0.471,10.961c0.445,1.365-0.005,2.52-1.169,3.475c-2.332,1.913-9.784,0.499-11.274-2.141
	c-3.045-5.392-2.561-12.998,2.516-18.591c1.021-0.236,2.043-0.47,3.063-0.709c1.212-0.284,3.363,0.796,3.262-1.454
	c-0.074-1.637-1.189-3.247-3.343-1.567c-0.152,0.119-0.386,0.131-0.582,0.193c-0.949-4.924-2.065,0.358-3.088-0.051
	C373.168,375.605,372.977,375.412,372.785,375.22z M369.426,359.998c7.329-1.583,14.275-4.049,21.286-6.374
	c5.954-1.973,10.651-6.236,16.676-8.071c4.029-1.228,8.328-2.052,11.899-4.562c0.687-0.482,2.312-0.115,1.932-1.567
	c-0.338-1.288-1.459-0.69-2.412-0.548c-6.545,0.976-12.651,3.232-18.293,6.593c-6.807,4.055-14.096,6.579-21.84,8.088
	c-3.557,0.693-7.54,0.26-10.423,3.198c-0.653,0.666-1.585,1.314-1.208,2.419C367.466,360.418,368.639,359.888,369.426,359.998z
	 M410.595,358.385c-0.833-0.758-1.469-0.403-2.127-0.089c-8.344,3.991-16.976,7.03-26.206,8.268
	c-1.827,0.245-3.834,0.466-5.368,1.78c-1.154,0.989-1.951,1.794,0.293,2.677c3.633,1.428,7.03,1.396,10.766,0.134
	c5.078-1.715,9.925-3.988,14.581-6.46C405.403,363.17,409.173,362.033,410.595,358.385z M410.693,349.517
	c-5.286-1.941-8.327,2.05-12.146,3.378c-0.771,0.268-0.815,1.161-0.306,1.832c0.58,0.762,0.94-0.1,1.431-0.232
	C403.447,353.476,407.015,352.032,410.693,349.517z M368.826,365.149c1.213,0.562,2.585,1.006,3.473,0.222
	c2.318-2.049,5.074-2.386,7.936-2.645c0.679-0.062,1.348-0.45,1.979-0.771c0.526-0.268,1.104-0.661,0.893-1.361
	c-0.238-0.783-0.918-0.518-1.489-0.429C377.021,360.877,373.062,363.238,368.826,365.149z M421.19,348.942
	c-0.915-0.729-1.771-0.575-2.497-0.315c-1.162,0.416-2.03,1.247-2.051,2.592c-0.005,0.394,0.281,1.101,0.516,1.137
	c1.189,0.184,1.855-0.847,2.644-1.471C420.401,350.41,420.737,349.603,421.19,348.942z M384.839,359.624
	c1.442,0.182,2.938,0.954,4.117-0.475c0.13-0.158-0.016-0.83-0.195-0.912C387.032,357.446,386.045,358.819,384.839,359.624z"/>
<path fill="#A87AB6" d="M399.232,338.433c0.007,4.704-0.042,4.788-4.708,4.967c-5.018,0.193-9.072,2.581-12.938,5.478
	c-0.848,0.635-1.757,1.435-2.735,1.606c-4.201,0.738-8.168,2.085-11.924,4.075c-1.058,0.561-2.076-0.556-3.167,0.471
	c0.023-1.73,0.528-3.032-0.079-4.293c-0.5-1.038-0.036-1.889,0.656-2.571c0.249-0.246,1.032-0.34,1.269-0.142
	c0.889,0.748,0.552,1.711,0.188,2.619c-0.27,0.674-0.474,1.35-0.141,2.083c0.195,0.068,0.543,0.244,0.58,0.194
	c2.125-2.923,4.945-4.832,8.38-5.899c0.633-0.196,0.813-0.821,0.923-1.427c4.541-1.484,8.758-4.001,13.675-4.285
	c1.271,1.154,2.529,0.742,3.827,0.017c1.829-1.022,3.688-1.994,5.534-2.988C398.792,338.363,399.013,338.395,399.232,338.433z"/>
<path fill="#A87AB6" d="M373.36,375.797c1.022,0.409,2.139-4.873,3.088,0.051c0.195-0.062,0.43-0.074,0.582-0.193
	c2.153-1.68,3.269-0.07,3.343,1.567c0.102,2.25-2.049,1.169-3.262,1.454c-1.021,0.239-2.042,0.473-3.063,0.709
	C374.058,378.143,372.98,377.11,373.36,375.797z"/>
<path fill="#D3C2DD" d="M398.571,338.335c-1.847,0.994-3.705,1.965-5.534,2.988c-1.298,0.726-2.556,1.137-3.827-0.017
	C392.181,339.846,394.772,337.189,398.571,338.335z"/>
<path fill="#A87AB6" d="M400.067,374.262c2.167-2.545,5.152-1.833,7.919-1.989C405.717,374.411,402.744,373.749,400.067,374.262z"/>
<path fill="#A87AB6" d="M415.221,335.441c-2.613,0.831-5.158,2.383-8.009,0.775C409.83,335.426,412.433,334.476,415.221,335.441z"/>
<path fill="#D3C2DD" d="M356.798,357.803c-0.58,0.702-0.967,2.092-2.16,0.604C355.18,357.566,356.03,357.832,356.798,357.803z"/>
<path fill="#A87AB6" d="M408.692,372.093c0.18-0.19,0.357-0.381,0.536-0.571C409.05,371.713,408.871,371.903,408.692,372.093z"/>
<path fill="#A87AB6" d="M369.426,359.998c-0.787-0.11-1.959,0.42-2.384-0.823c-0.376-1.105,0.555-1.754,1.208-2.419
	c2.884-2.938,6.866-2.504,10.423-3.198c7.744-1.509,15.033-4.033,21.84-8.088c5.642-3.36,11.748-5.617,18.293-6.593
	c0.953-0.142,2.074-0.739,2.412,0.548c0.381,1.452-1.245,1.085-1.932,1.567c-3.571,2.51-7.87,3.334-11.899,4.562
	c-6.024,1.835-10.723,6.098-16.676,8.071C383.701,355.949,376.754,358.416,369.426,359.998z"/>
<path fill="#A87AB6" d="M410.595,358.385c-1.422,3.647-5.19,4.785-8.062,6.309c-4.655,2.473-9.503,4.745-14.581,6.46
	c-3.735,1.262-7.133,1.293-10.766-0.134c-2.244-0.882-1.447-1.688-0.293-2.677c1.533-1.313,3.541-1.535,5.368-1.78
	c9.23-1.237,17.862-4.276,26.206-8.268C409.126,357.982,409.762,357.627,410.595,358.385z"/>
<path fill="#A87AB6" d="M410.693,349.517c-3.68,2.515-7.246,3.959-11.021,4.979c-0.49,0.132-0.851,0.994-1.431,0.232
	c-0.511-0.671-0.465-1.564,0.306-1.832C402.366,351.566,405.407,347.575,410.693,349.517z"/>
<path fill="#A87AB6" d="M368.826,365.149c4.236-1.911,8.193-4.272,12.788-4.984c0.571-0.089,1.251-0.354,1.488,0.429
	c0.213,0.7-0.364,1.093-0.892,1.361c-0.631,0.321-1.299,0.709-1.979,0.771c-2.861,0.259-5.616,0.596-7.936,2.645
	C371.412,366.156,370.04,365.711,368.826,365.149z"/>
<path fill="#A87AB6" d="M421.19,348.942c-0.453,0.66-0.789,1.468-1.39,1.943c-0.787,0.624-1.453,1.654-2.644,1.471
	c-0.233-0.036-0.521-0.743-0.516-1.137c0.021-1.345,0.889-2.176,2.051-2.592C419.419,348.367,420.275,348.213,421.19,348.942z"/>
<path fill="#A87AB6" d="M384.839,359.624c1.206-0.805,2.193-2.178,3.921-1.387c0.18,0.082,0.326,0.753,0.195,0.912
	C387.778,360.578,386.282,359.806,384.839,359.624z"/>
</svg>
